<svg xmlns="http://www.w3.org/2000/svg" viewBox="-20 -20 280 280" width="200" height="200">
  <!-- Orange background circle -->
  <circle cx="120" cy="120" r="112" fill="#FF9900"/>
  <!-- Book + person silhouette -->
  <path transform="translate(-7.5, 8.44) scale(10.625)" fill="#000000"
        d="M12 8a3 3 0 0 0 3-3 3 3 0 0 0-3-3 3 3 0 0 0-3 3 3 3 0 0 0 3 3m0 3.54C9.64 9.35 6.5 8 3 8v11c3.5 0 6.64 1.35 9 3.54 2.36-2.19 5.5-3.54 9-3.54V8c-3.5 0-6.64 1.35-9 3.54z"/>
  <!-- Black head circle -->
  <circle cx="120" cy="61.6" r="40" fill="#000000"/>
  <!-- Bitcoin ₿ symbol centered on head -->
  <text x="120" y="61.6" text-anchor="middle" dominant-baseline="central"
        font-family="-apple-system, BlinkMacSystemFont, 'Segoe UI', Roboto, Helvetica, Arial, sans-serif"
        font-size="60" font-weight="bold" fill="#FF9900"
        transform="rotate(14, 120, 61.6)">&#x20BF;</text>
</svg>
